<svg xmlns="http://www.w3.org/2000/svg" width="512" height="512" viewBox="0 0 512 512">
  <defs>
    <style>
      .para-blue { fill: #3498db; }
      .para-yellow { fill: #f1c40f; }
      .para-text { font-family: Arial, sans-serif; font-weight: bold; }
    </style>
  </defs>
  <rect width="512" height="512" fill="white" rx="128" ry="128"/>
  
  <!-- PARA logo -->
  <g transform="translate(256, 256) scale(2.5)">
    <!-- Top flower/star element -->
    <path class="para-blue" d="M0,-40 C5,-35 15,-35 20,-40 C25,-35 35,-35 40,-40 C35,-30 35,-20 40,-15 C30,-15 20,-15 10,-15 C15,-20 15,-30 10,-40 C5,-35 -5,-35 -10,-40 C-15,-35 -25,-35 -30,-40 C-25,-30 -25,-20 -20,-15 C-30,-15 -40,-15 -50,-15 C-45,-20 -45,-30 -40,-40 Z" />
    
    <!-- Bottom-left flower/star element -->
    <path class="para-yellow" d="M-30,20 C-25,15 -15,15 -10,20 C-5,15 5,15 10,20 C5,30 5,40 10,45 C0,45 -10,45 -20,45 C-15,40 -15,30 -20,20 C-25,25 -35,25 -40,20 C-45,25 -55,25 -60,20 C-55,10 -55,0 -60,-5 C-50,-5 -40,-5 -30,-5 C-35,0 -35,10 -30,20 Z" />
    
    <!-- Bottom-right flower/star element -->
    <path class="para-blue" d="M30,20 C25,15 15,15 10,20 C5,15 -5,15 -10,20 C-5,30 -5,40 -10,45 C0,45 10,45 20,45 C15,40 15,30 20,20 C25,25 35,25 40,20 C45,25 55,25 60,20 C55,10 55,0 60,-5 C50,-5 40,-5 30,-5 C35,0 35,10 30,20 Z" />
  </g>
  
  <!-- PARA text -->
  <text x="256" y="300" font-size="80" text-anchor="middle" fill="#3498db" class="para-text">PARA</text>
  
  <!-- PT PARA INSAN SINERGI text -->
  <text x="256" y="350" font-size="20" text-anchor="middle" fill="#3498db" class="para-text">PT PARA INSAN SINERGI</text>
</svg>