<svg xmlns="http://www.w3.org/2000/svg" width="180" height="180" viewBox="0 0 180 180">
  <defs>
    <style>
      .para-blue { fill: #3498db; }
      .para-yellow { fill: #f1c40f; }
      .para-text { font-family: Arial, sans-serif; font-weight: bold; }
    </style>
  </defs>
  <rect width="180" height="180" fill="white" rx="16" ry="16"/>
  <!-- Decorative elements around the logo -->
  <g transform="translate(90, 90)">
    <!-- Top flower/star element -->
    <path class="para-blue" d="M0,-42 C5,-37 14,-37 19,-42 C24,-37 33,-37 38,-42 C33,-32 33,-22 38,-17 C28,-17 18,-17 8,-17 C13,-22 13,-32 8,-42 C3,-37 -6,-37 -11,-42 C-16,-37 -25,-37 -30,-42 C-25,-32 -25,-22 -20,-17 C-30,-17 -40,-17 -50,-17 C-45,-22 -45,-32 -40,-42 Z" />
    
    <!-- Bottom-left flower/star element -->
    <path class="para-yellow" d="M-30,22 C-25,17 -16,17 -11,22 C-6,17 3,17 8,22 C3,32 3,42 8,47 C-2,47 -12,47 -22,47 C-17,42 -17,32 -22,22 C-27,27 -36,27 -41,22 C-46,27 -55,27 -60,22 C-55,12 -55,2 -60,-3 C-50,-3 -40,-3 -30,-3 C-35,2 -35,12 -30,22 Z" />
    
    <!-- Bottom-right flower/star element -->
    <path class="para-blue" d="M30,22 C25,17 16,17 11,22 C6,17 -3,17 -8,22 C-3,32 -3,42 -8,47 C2,47 12,47 22,47 C17,42 17,32 22,22 C27,27 36,27 41,22 C46,27 55,27 60,22 C55,12 55,2 60,-3 C50,-3 40,-3 30,-3 C35,2 35,12 30,22 Z" />
  </g>
  
  <!-- PARA text -->
  <g transform="translate(90, 90)">
    <text class="para-text para-blue" x="-47" y="9" font-size="37">PARA</text>
  </g>
  
  <!-- PT PARA INSAN SINERGI text -->
  <text class="para-text" x="90" y="122" font-size="9" text-anchor="middle" fill="#333">PT PARA INSAN SINERGI</text>
</svg>