<svg xmlns="http://www.w3.org/2000/svg" width="16" height="16" viewBox="0 0 16 16">
  <defs>
    <style>
      .para-blue { fill: #3498db; }
      .para-yellow { fill: #f1c40f; }
    </style>
  </defs>
  <rect width="16" height="16" fill="white" rx="3" ry="3"/>
  <!-- Simplified PARA logo for small size -->
  <g transform="translate(8, 8)">
    <!-- Simplified flower/star elements -->
    <path class="para-blue" d="M0,-4 A2,2 0 0,1 2,-2 A2,2 0 0,1 4,0 A2,2 0 0,1 2,2 A2,2 0 0,1 0,4 A2,2 0 0,1 -2,2 A2,2 0 0,1 -4,0 A2,2 0 0,1 -2,-2 A2,2 0 0,1 0,-4 Z" />
    <circle class="para-yellow" cx="0" cy="0" r="2" />
  </g>
  
</svg>