<svg xmlns="http://www.w3.org/2000/svg" width="32" height="32" viewBox="0 0 32 32">
  <defs>
    <style>
      .para-blue { fill: #3498db; }
      .para-yellow { fill: #f1c40f; }
    </style>
  </defs>
  <rect width="32" height="32" fill="white" rx="6" ry="6"/>
  <!-- Simplified PARA logo for small size -->
  <g transform="translate(16, 16)">
    <!-- Flower/star elements -->
    <path class="para-blue" d="M0,-8 C1,-7 3,-7 4,-8 C5,-7 7,-7 8,-8 C7,-6 7,-4 8,-3 C6,-3 4,-3 2,-3 C3,-4 3,-6 2,-8 C1,-7 -1,-7 -2,-8 C-3,-7 -5,-7 -6,-8 C-5,-6 -5,-4 -4,-3 C-6,-3 -8,-3 -10,-3 C-9,-4 -9,-6 -8,-8 Z" />
    
    <!-- Bottom-left flower/star element -->
    <path class="para-yellow" d="M-6,4 C-5,3 -3,3 -2,4 C-1,3 1,3 2,4 C1,6 1,8 2,9 C0,9 -2,9 -4,9 C-3,8 -3,6 -4,4 C-5,5 -7,5 -8,4 C-9,5 -11,5 -12,4 C-11,2 -11,0 -12,-1 C-10,-1 -8,-1 -6,-1 C-7,0 -7,2 -6,4 Z" />
    
    <!-- Bottom-right flower/star element -->
    <path class="para-blue" d="M6,4 C5,3 3,3 2,4 C1,3 -1,3 -2,4 C-1,6 -1,8 -2,9 C0,9 2,9 4,9 C3,8 3,6 4,4 C5,5 7,5 8,4 C9,5 11,5 12,4 C11,2 11,0 12,-1 C10,-1 8,-1 6,-1 C7,0 7,2 6,4 Z" />
  </g>
  
  <!-- PARA text -->
  <text x="16" y="18" font-size="6" text-anchor="middle" fill="#3498db" font-family="Arial, sans-serif" font-weight="bold">PARA</text>
</svg>