<svg xmlns="http://www.w3.org/2000/svg" width="192" height="192" viewBox="0 0 192 192">
  <defs>
    <style>
      .para-blue { fill: #3498db; }
      .para-yellow { fill: #f1c40f; }
      .para-text { font-family: Arial, sans-serif; font-weight: bold; }
    </style>
  </defs>
  <rect width="192" height="192" fill="white" rx="16" ry="16"/>
  <!-- Decorative elements around the logo -->
  <g transform="translate(96, 96)">
    <!-- Top flower/star element -->
    <path class="para-blue" d="M0,-45 C5,-40 15,-40 20,-45 C25,-40 35,-40 40,-45 C35,-35 35,-25 40,-20 C30,-20 20,-20 10,-20 C15,-25 15,-35 10,-45 C5,-40 -5,-40 -10,-45 C-15,-40 -25,-40 -30,-45 C-25,-35 -25,-25 -20,-20 C-30,-20 -40,-20 -50,-20 C-45,-25 -45,-35 -40,-45 Z" />
    
    <!-- Bottom-left flower/star element -->
    <path class="para-yellow" d="M-30,25 C-25,20 -15,20 -10,25 C-5,20 5,20 10,25 C5,35 5,45 10,50 C0,50 -10,50 -20,50 C-15,45 -15,35 -20,25 C-25,30 -35,30 -40,25 C-45,30 -55,30 -60,25 C-55,15 -55,5 -60,0 C-50,0 -40,0 -30,0 C-35,5 -35,15 -30,25 Z" />
    
    <!-- Bottom-right flower/star element -->
    <path class="para-blue" d="M30,25 C25,20 15,20 10,25 C5,20 -5,20 -10,25 C-5,35 -5,45 -10,50 C0,50 10,50 20,50 C15,45 15,35 20,25 C25,30 35,30 40,25 C45,30 55,30 60,25 C55,15 55,5 60,0 C50,0 40,0 30,0 C35,5 35,15 30,25 Z" />
  </g>
  
  <!-- PARA text -->
  <g transform="translate(96, 96)">
    <text class="para-text para-blue" x="-50" y="10" font-size="40">PARA</text>
  </g>
  
  <!-- PT PARA INSAN SINERGI text -->
  <text class="para-text" x="96" y="130" font-size="10" text-anchor="middle" fill="#333">PT PARA INSAN SINERGI</text>
</svg>