<svg xmlns="http://www.w3.org/2000/svg" width="512" height="512" viewBox="0 0 512 512">
  <defs>
    <style>
      .para-blue { fill: #3498db; }
      .para-yellow { fill: #f1c40f; }
      .para-text { font-family: Arial, sans-serif; font-weight: bold; }
    </style>
  </defs>
  <rect width="512" height="512" fill="white" rx="48" ry="48"/>
  <!-- Decorative elements around the logo -->
  <g transform="translate(256, 256)">
    <!-- Top flower/star element -->
    <path class="para-blue" d="M0,-120 C15,-110 40,-110 55,-120 C70,-110 95,-110 110,-120 C95,-95 95,-70 110,-55 C80,-55 50,-55 20,-55 C35,-70 35,-95 20,-120 C5,-110 -20,-110 -35,-120 C-50,-110 -75,-110 -90,-120 C-75,-95 -75,-70 -60,-55 C-90,-55 -120,-55 -150,-55 C-135,-70 -135,-95 -120,-120 Z" />
    
    <!-- Bottom-left flower/star element -->
    <path class="para-yellow" d="M-90,70 C-75,55 -50,55 -35,70 C-20,55 5,55 20,70 C5,95 5,120 20,130 C-10,130 -40,130 -70,130 C-55,120 -55,95 -70,70 C-85,85 -110,85 -125,70 C-140,85 -165,85 -180,70 C-165,45 -165,20 -180,5 C-150,5 -120,5 -90,5 C-105,20 -105,45 -90,70 Z" />
    
    <!-- Bottom-right flower/star element -->
    <path class="para-blue" d="M90,70 C75,55 50,55 35,70 C20,55 -5,55 -20,70 C-5,95 -5,120 -20,130 C10,130 40,130 70,130 C55,120 55,95 70,70 C85,85 110,85 125,70 C140,85 165,85 180,70 C165,45 165,20 180,5 C150,5 120,5 90,5 C105,20 105,45 90,70 Z" />
  </g>
  
  <!-- PARA text -->
  <g transform="translate(256, 256)">
    <text class="para-text para-blue" x="-140" y="25" font-size="110">PARA</text>
  </g>
  
  <!-- PT PARA INSAN SINERGI text -->
  <text class="para-text" x="256" y="350" font-size="28" text-anchor="middle" fill="#333">PT PARA INSAN SINERGI</text>
</svg>